<svg version="1.0" id="icon-logo" xmlns="http://www.w3.org/2000/svg" xmlns:xlink="http://www.w3.org/1999/xlink" x="0px" y="0px" viewBox="0 0 49.6 28.8" xml:space="preserve"> <path class="st0" d="M49.6,27.8c-1-0.9-2.6-1.7-3.3-1.9c-0.2-0.1-0.3-0.4-0.2-0.6c0.1-0.3,0-0.6-0.3-0.7L44,24.3l-0.2-0.7 c0-0.3-0.2-0.5-0.5-0.7c-0.1-0.1-0.3-0.2-0.4-0.3c-0.2-0.2-0.9-0.1-1.4-0.1c-0.1,0-0.2,0-0.3-0.1c-0.1,0-0.1-0.2-0.2-0.3 c0,0,0-0.1,0-0.2c0-0.1-0.1-0.2-0.2-0.3c-4.1-2.9-8.1-1.9-8.7-1.9c0-1.6-1.7-2.6-1.7-2.6s1.9-1.4,3.9-2.9c5.2-3.6,12-12.2,12-12.2 s-0.4-0.2-0.8,0c-1.1,2.5-6.5,6.7-7.7,8c-1.1,1.1-4.8,2.7-5.7,3.1c-0.1,0-0.3,0-0.4,0L31.5,13c-0.2-0.1-0.3-0.4-0.2-0.7 c0.7-1,0.9-2.4,0.9-3.5c3.2-3.1,5-8.8,5-8.8h-0.8c-3.1,6.5-1.8,4.1-4.8,8.1s-5.3,4.7-7,5.6c-1.4-2.4-4-3.3-4.4-3.3c0,0,0,0-0.1,0 L19.4,10c0,0-1.4,2.1-2,2.6l0,0c0.7-1.6,0.6-2.9,0.1-3.5c-1.9-3.3-11-6-11-6s-0.2,0-0.8,0C6.3,3.6,6.9,4.9,7,5.6 c-1.4-2-2.7-2.9-3.1-3.1c-0.1,0-0.2,0-0.3,0H3.4C3.1,2.5,2.9,2.8,3,3.1l0.2,0.2C2.5,2.7,0.4,2.1,0.4,2.1L0,2.5c0,0-0.4-0.1,2.3,2.1 s3.6,5.8,3.9,6.2c0.4,0.4,2.1,4.2,2.5,4.9c0.3,0.7,1,2.2,1,2.2c1.7,1,4.7,0.8,4.9,0.7c0.2,0-0.2,0.8-0.4,0.8s-0.6,0.1-3.3,0.1 s-4.3,2.3-4.5,2.3c-0.1,0-0.4,0-0.7,0S5.2,22,5.2,22.3v0.1c0,0.2,0.2,0.4,0.4,0.4C6,22.8,6.5,23,6.8,23l0,0c2.4,2.6,3.9,2.7,3.9,2.7 s3.3,0,4.4,0.1c2.1,1.2,4.3,0.7,4.3,0.7l0.2,0.4c2.3,1.5,8.9,0.5,10.7,0.5c1.7-0.1,5.1,0,8.4,0c3.3,0,9.7,1.4,9.7,1.4l0,0 C48.3,28.4,49.3,28.4,49.6,27.8C49.6,27.9,49.6,27.8,49.6,27.8z M7.8,11.4c0,0-0.9-1.5-1.8-3.1c-0.4-0.7-0.9-1.4-1.2-2 S4.2,5.4,4.2,5.4s0.2,0.3,0.6,0.9s0.9,1.3,1.4,2c1,1.5,2,2.9,2,2.9L7.8,11.4z M10.5,21.6c0-0.1,0.1-0.2,0.1-0.2l0,0c0,0,0,0,0,0.1 l0.1,0.1h0.1l0,0l0,0l0,0l0,0l0,0l0,0l0,0l0,0c0,0,0,0,0.1,0.1s0.2,0.1,0.2,0.1l0,0c0,0,0,0-0.2,0.1c0,0-0.1,0-0.2,0 c-0.1,0-0.2,0-0.2,0C10.5,22,10.5,21.8,10.5,21.6z M14.3,23.5c-0.1,0.1-0.2,0.3-0.4,0.5c-0.1,0.1-0.2,0.2-0.3,0.3s-0.3,0.2-0.5,0.3 s-0.4,0.1-0.6,0.2h-0.1l0,0l0,0l0,0l0,0l0,0h-0.2h-0.1l0,0h-0.3l0,0h-0.1c-0.1,0-0.2,0-0.3-0.1c-0.2,0-0.4-0.1-0.5-0.2 c-0.3-0.1-0.6-0.3-0.8-0.5s-0.4-0.3-0.5-0.5c-0.1-0.1-0.2-0.2-0.2-0.2s0.1,0,0.3,0s0.4,0,0.7,0s0.6,0,0.9,0.1c0.1,0,0.3,0,0.4,0.1 c0,0,0.1,0,0.2,0l0,0l0,0H12c0.1,0,0.3,0,0.5,0c0.1,0,0.3,0,0.4,0c0.1,0,0.2,0,0.3,0s0.2-0.1,0.4-0.1c0.3-0.1,0.5-0.1,0.7-0.1 s0.3,0,0.3,0S14.4,23.3,14.3,23.5z M25,18.2c0,0,0.2,0,0.6,0c0.4,0,0.8-0.2,1.3-0.3c0.2,0,0.5-0.1,0.8-0.1s0.5,0,0.6,0.1 c0.3,0.2,0.5,0.4,0.5,0.4l0,0c0,0-0.3,0-0.6,0.1c-0.2,0-0.4,0-0.6,0s-0.4,0-0.7,0c-0.5,0-0.9,0.1-1.3,0c-0.2,0-0.3,0-0.4-0.1 C25.1,18.3,25,18.3,25,18.2L25,18.2z M20.2,15.4c0.2-0.3,0.5-0.6,0.9-0.8s0.8-0.5,1.1-0.6s0.5-0.2,0.5-0.2l0.2,0.5 c0,0-0.2,0-0.5,0.1s-0.7,0.2-1.1,0.4S20.6,15.2,20.2,15.4c-0.1,0.3-0.3,0.4-0.3,0.4S20,15.6,20.2,15.4z M11.9,8.1L11.9,8.1 C12,8.1,12,8.2,12,8.3s0.1,0.3,0.2,0.6c0.1,0.2,0.2,0.5,0.4,0.8c0.1,0.3,0.2,0.7,0.2,1s0,0.7,0,1s0,0.6,0,0.9c0,0.5-0.1,0.8-0.1,0.8 h-0.1c0,0,0-0.3-0.1-0.8c0-0.2,0-0.6,0-0.9c0-0.3,0-0.7,0-1s0-0.7-0.1-0.9c-0.1-0.3-0.2-0.6-0.3-0.8S12,8.5,12,8.4 C11.9,8.1,11.9,8.1,11.9,8.1z M14.8,16.3c-1,0-2,0.1-3,0.4h-0.1v-0.1c-0.4-0.6-0.8-1.1-1.2-1.6c-0.2-0.2-0.5-0.5-0.7-0.7 S9.3,13.9,9,13.6l0.4-0.5c0.3,0.2,0.5,0.5,0.8,0.7c0.2,0.2,0.5,0.5,0.7,0.8c0.4,0.5,0.8,1.1,1.1,1.7c1-0.2,2-0.3,3-0.2 s2.1,0.4,2.9,0.9C16.9,16.5,15.8,16.3,14.8,16.3z M20,24.1c0,0.1,0,0.3-0.1,0.4c-0.1,0.3-0.3,0.5-0.5,0.6c-0.1,0.1-0.2,0.3-0.2,0.4 c0,0.1,0,0.2,0,0.2s0,0-0.1-0.2c0-0.1,0-0.3,0.1-0.5s0.2-0.4,0.3-0.6c0-0.1,0-0.2,0-0.3s0-0.2-0.1-0.3c0,0,0-0.1-0.1-0.1l0,0l0,0 l0,0l0,0l0,0l0,0l0,0h-0.1l0,0l0,0l0,0l0,0l0,0l0,0l0,0v-0.1h-0.1c-0.3-0.3-0.5-0.3-0.7-0.3s-0.3,0-0.4,0c-0.1,0-0.1,0-0.1,0 l-0.1-0.9c0,0,0.1,0,0.2,0c0.1,0,0.4,0,0.6,0.1c0.2,0,0.5,0.2,0.8,0.3c0,0,0.1,0.1,0.2,0.1l0.1,0.1l0,0l0,0l0,0l0,0l0,0l0,0v0.1l0,0 l0,0l0,0l0,0l0,0l0,0l0,0c0,0.1,0.1,0.2,0.1,0.3C20,23.8,20,23.9,20,24.1z M18.3,17.5c-0.5,0.3-0.8,0.5-0.8,0.5S17.8,17.8,18.3,17.5 c0.3-0.5,0.9-0.9,1.6-1.2c0.7-0.4,1.3-0.7,1.8-0.8s0.9-0.3,0.9-0.3l0.1,0.5c0,0-0.4,0-0.9,0.2c-0.5,0.1-1.2,0.4-1.8,0.7 C19.4,16.8,18.7,17.2,18.3,17.5z M28.8,25.6c-0.3-0.1-0.7-0.3-1.1-0.4c-0.5-0.1-1-0.3-1.7-0.3c-0.3,0-0.6,0-0.9,0 c-0.1,0-0.1,0-0.3,0c0,0-0.1,0-0.2-0.1l-0.1-0.1c-0.1-0.2-0.1-0.3-0.1-0.5c-0.1-0.7-0.2-1.3-0.5-1.8c-0.1,0-0.1-0.2-0.2-0.2 c-0.1,0-0.2-0.2-0.3-0.2c-0.2-0.1-0.4-0.2-0.7-0.2c-0.5-0.4-0.9-0.4-1.2-0.4s-0.4,0-0.4,0v-0.8c0,0,0.2,0,0.5,0s0.8,0,1.3,0.2 c0.3,0.1,0.6,0.2,0.8,0.4c0.1,0.1,0.2,0.2,0.4,0.4c0.1,0.1,0.2,0.3,0.3,0.4c0.3,0.7,0.3,1.3,0.4,2c0,0.1,0,0.3,0.1,0.4l0,0l0,0 c0,0,0.1,0,0.2,0c0.3,0,0.7,0,1,0.1c0.6,0.1,1.2,0.3,1.7,0.5C28.2,25.2,28.5,25.4,28.8,25.6c0.3,0.1,0.4,0.2,0.4,0.2 S29.1,25.7,28.8,25.6z M35.3,22.8c0.3,0,0.7-0.1,1.1-0.2c0.4-0.1,0.8-0.3,1-0.5c0.3-0.1,0.4-0.3,0.4-0.3l0.3,0.5 c0,0-0.2,0.1-0.5,0.2c-0.3,0.1-0.8,0.2-1.2,0.3C36,22.9,35.6,22.9,35.3,22.8c-0.3,0-0.5,0-0.5,0S35,22.9,35.3,22.8z M43.7,26.3 c0,0-0.6-0.1-1.5-0.3c-0.9-0.1-2.1-0.3-3.3-0.4c-1.2-0.1-2.4-0.2-3.3-0.1c-0.9,0-1.5,0-1.5,0v-0.2c0,0,0.1,0,0.4-0.1 c0.2-0.1,0.6-0.2,1.1-0.3s1-0.1,1.6-0.2c0.3,0,0.6,0,0.9,0s0.6,0,0.9,0s0.6,0.1,0.9,0.1c0.3,0,0.6,0.1,0.8,0.2 c0.2,0.1,0.6,0.1,0.8,0.2c0.2,0.1,0.5,0.1,0.7,0.2c0.4,0.2,0.8,0.3,1,0.5C43.6,26.2,43.7,26.3,43.7,26.3L43.7,26.3z"/> </svg>
